<svg xmlns="http://www.w3.org/2000/svg" width="1200" height="800" viewBox="0 0 1200 800">
  <defs>
    <linearGradient id="bg" x1="0" y1="0" x2="1" y2="1">
      <stop offset="0" stop-color="#f8fafc"/>
      <stop offset="1" stop-color="#e2e8f0"/>
    </linearGradient>
    <linearGradient id="accent" x1="0" y1="1" x2="1" y2="0">
      <stop offset="0" stop-color="#22c55e" stop-opacity="0.16"/>
      <stop offset="1" stop-color="#0ea5e9" stop-opacity="0.12"/>
    </linearGradient>
  </defs>
  <rect width="1200" height="800" fill="url(#bg)"/>
  <rect x="70" y="70" width="1060" height="660" rx="56" fill="white" opacity="0.85"/>
  <rect x="70" y="70" width="1060" height="660" rx="56" fill="url(#accent)"/>

  <g transform="translate(0,10)" fill="#0f172a" opacity="0.34">
    <circle cx="560" cy="320" r="28"/>
    <circle cx="640" cy="320" r="28"/>
    <circle cx="510" cy="375" r="24"/>
    <circle cx="690" cy="375" r="24"/>
    <path d="M600 450c-54 0-98-33-98-74 0-26 16-50 41-63 14 18 34 29 57 29s43-11 57-29c25 13 41 37 41 63 0 41-44 74-98 74z"/>
  </g>

  <text x="600" y="540" text-anchor="middle" font-family="ui-sans-serif, system-ui, -apple-system, Segoe UI, Roboto, Arial" font-size="40" fill="#0f172a" opacity="0.72">Pets</text>
  <text x="600" y="585" text-anchor="middle" font-family="ui-sans-serif, system-ui, -apple-system, Segoe UI, Roboto, Arial" font-size="22" fill="#334155" opacity="0.72">SavvyDealsHub placeholder</text>
</svg>