<svg xmlns="http://www.w3.org/2000/svg" width="1200" height="800" viewBox="0 0 1200 800">
  <defs>
    <linearGradient id="bg" x1="0" y1="0" x2="1" y2="1">
      <stop offset="0" stop-color="#f8fafc"/>
      <stop offset="1" stop-color="#e2e8f0"/>
    </linearGradient>
    <linearGradient id="accent" x1="0" y1="1" x2="1" y2="0">
      <stop offset="0" stop-color="#db2777" stop-opacity="0.18"/>
      <stop offset="1" stop-color="#a855f7" stop-opacity="0.16"/>
    </linearGradient>
  </defs>
  <rect width="1200" height="800" fill="url(#bg)"/>
  <rect x="70" y="70" width="1060" height="660" rx="56" fill="white" opacity="0.85"/>
  <rect x="70" y="70" width="1060" height="660" rx="56" fill="url(#accent)"/>

  <g transform="translate(0,8)" fill="#0f172a" opacity="0.34">
    <circle cx="600" cy="345" r="112" fill="#0f172a" opacity="0.06"/>
    <path d="M560 430h80v18h-80v-18zm16-150c0-18 14-32 32-32s32 14 32 32v110h-64V280zm-18 0c0-28 22-50 50-50s50 22 50 50v110c0 10-8 18-18 18h-64c-10 0-18-8-18-18V280z"/>
  </g>

  <text x="600" y="540" text-anchor="middle" font-family="ui-sans-serif, system-ui, -apple-system, Segoe UI, Roboto, Arial" font-size="40" fill="#0f172a" opacity="0.72">Beauty &amp; Health</text>
  <text x="600" y="585" text-anchor="middle" font-family="ui-sans-serif, system-ui, -apple-system, Segoe UI, Roboto, Arial" font-size="22" fill="#334155" opacity="0.72">SavvyDealsHub placeholder</text>
</svg>